<svg xmlns="http://www.w3.org/2000/svg" version="1.1" xmlns:xlink="http://www.w3.org/1999/xlink" xmlns:svgjs="http://svgjs.dev/svgjs" viewBox="0 0 800 800" opacity="0.91"><defs><linearGradient x1="50%" y1="0%" x2="50%" y2="100%" id="wwwhirl-grad"><stop stop-color="#04c2c9" stop-opacity="1" offset="45%"></stop><stop stop-color="rgba(255, 3, 108)" stop-opacity="1" offset="100%"></stop></linearGradient></defs><g stroke-width="2" stroke="url(#wwwhirl-grad)" fill="none" stroke-linecap="round"><path d="M49.00000066947939 437.2537466346999C63.625001115798995 415.7367147280522 89.95000191917427 329.1457433355055 119.20000281181345 333.97199348279094C148.45000370445263 338.7982436300764 160.1500040615083 455.1913096821109 189.4000049541475 460.41974734167013C218.65000584678668 465.6481850012294 230.35000620384238 357.86193171185397 259.60000709648153 359.06849424867534C288.85000798912074 360.2750567854967 300.55000834617647 465.00468498159137 329.8000092388156 466.21124751841273C359.0500101314548 467.41781005523404 370.75001048851044 367.4742132551975 400.00001138114965 364.8599944254179C429.25001227378885 362.2457755956383 440.9500126308445 449.6411220127326 470.2000135234837 453.6629971354705C499.45001441612294 457.6848722582084 511.15001477317855 389.59452643025594 540.4000156658178 384.16499501455974C569.6500165584571 378.7354635988636 581.3500169155126 424.9870275103493 610.6000178081518 427.60124634012897C639.8500187007911 430.2154651699086 651.5500190578467 391.8869952502165 680.8000199504859 396.71324539750196C710.0500208431251 401.5394955447874 736.3750216465004 439.5059967034331 751.00002209282 450.7672470470992 " transform="rotate(117, 400, 400)"></path><path d="M58.750000650882754 436.2189103786931C72.96875108480458 415.29957380278563 98.56250186586388 331.113907171143 127.0000027337075 335.8060948143372C155.43750360155116 340.4982824575314 166.81250394868863 453.65820778589824 195.25000481653228 458.7414110660253C223.68750568437596 463.8246143461524 235.06250603151344 359.0324236481485 263.50000689935706 360.20547055894707C291.93750776720077 361.3785174697456 303.31250811433824 463.1989893270598 331.75000898218184 464.3720362378583C360.18750985002555 465.5450831486569 371.56251019716296 368.37769737084363 400.0000110650066 365.8360957307801C428.43751193285027 363.29449409071657 439.81251227998774 448.26219199622494 468.2500131478314 452.17234836555343C496.6875140156751 456.0825047348819 508.0625143628124 389.88355740215036 536.5000152306561 384.6048463035569C564.9375160984998 379.3261352049634 576.3125164456372 424.2929334522412 604.750017313481 426.83453509230475C633.1875181813247 429.37613673236825 644.562518528462 392.11234653266763 673.0000193963058 396.8045341758618C701.4375202641495 401.49672181905606 727.0312710452088 438.4085979455171 741.2500214791305 449.35703577963693 " transform="rotate(113.75, 400, 400)"></path><path d="M68.5000006322861 435.18409319617274C82.31250105381017 414.8624519510055 107.17500181255349 333.0820900802669 134.8000026556016 337.6402152193698C162.4250034986497 342.19834035847276 173.47500383586896 452.12512496317197 201.1000046789171 457.0630938638668C228.72500552196522 462.0010627645617 239.77500585918446 360.20293465792935 267.4000067022326 361.3424659427051C295.0250075452807 362.48199722748086 306.0750078825 461.39331274601466 333.7000087255481 462.5328440307904C361.3250095685962 463.6723753155661 372.37500990581543 369.28120055997607 400.00001074886353 366.8122161096286C427.6250115919117 364.3432316592812 438.67501192913096 446.88328105320363 466.3000127721791 450.6817186691227C493.9250136152273 454.48015628504186 504.97501395244643 390.17260744753116 532.6000147954946 385.04471666604036C560.2250156385428 379.91682588454955 571.2750159757619 423.5988584676194 598.9000168188101 426.06784291796686C626.5250176618582 428.5368273683143 637.5750179990774 392.3377168886051 665.2000188421256 396.895842027708C692.8250196851737 401.45396716681097 717.687520443917 437.31121826108745 731.5000208654411 447.946843585661 " transform="rotate(110.5, 400, 400)"></path><path d="M78.25000061368945 434.14926075486323C91.65625102281575 414.4253148404362 115.78750175924307 335.0502577306017 142.60000257749567 339.4743203656134C169.41250339574825 343.898383000625 180.1375037230493 450.59202688165664 206.95000454130187 455.3847614029193C233.76250535955447 460.177495924182 244.4875056868555 361.37343040892114 271.3000065051081 362.4794460676741C298.1125073233607 363.585461726427 308.83750765066173 459.5876209061804 335.65000846891434 460.6936365649333C362.46250928716694 461.7996522236862 373.1875096144679 370.1846884903194 400.0000104327205 367.7883212296881C426.8125112509731 365.3919539690568 437.5375115782741 445.5043548513932 464.3500123965267 449.19107371390294C491.1625132147794 452.87779257641273 501.88751354208034 390.46164223412296 528.700014360333 385.48457176973477C555.5125151785855 380.50750130534664 566.2375155058866 422.90476822420857 593.0500163241392 425.3011354848399C619.8625171423919 427.69750274547124 630.5875174696928 392.5630719857535 657.4000182879454 396.9871346207652C684.2125191061981 401.4111972557768 708.3437698426254 436.2138233178687 721.7500202517516 446.5366361328959 " transform="rotate(107.25, 400, 400)"></path><path d="M88.0000005950928 433.1144397576456C101.00000099182132 413.98818917395874 124.40000170593268 337.0184368250283 150.40000249938976 341.3084369559487C176.40000329284678 345.5984370868691 186.8000036102296 449.0589402442331 212.80000440368667 453.70644038606355C238.80000519714375 458.353940527894 249.20000551452654 362.5439376040047 275.2000063079836 363.6164376367349C301.20000710144063 364.68893766946496 311.6000074188235 457.78194051043795 337.60000821228056 458.85444054316804C363.6000090057376 459.92694057589813 374.00000932312037 371.08818786475456 400.00001011657747 368.76443779383936C426.0000109100345 366.4406877229241 436.40001122741734 444.1254400936746 462.40001202087444 447.700440202775C488.40001281433155 451.27544031187534 498.80001313171425 390.75068846480644 524.8000139251714 385.924438317521C550.8000147186285 381.0981881702355 561.2000150360111 422.2106894248895 587.2000158294684 424.5344394958047C613.2000166229254 426.85818956671994 623.6000169403081 392.7884385269937 649.6000177337653 397.0784386579141C675.6000185272223 401.3684387888345 699.0000192413337 435.11643981874175 712.0000196380622 445.1264401242227 " transform="rotate(104, 400, 400)"></path><path d="M97.75000057649615 432.07961113103335C110.34375096082691 413.55105587808674 133.0125016526223 338.98660829006036 158.2000024212838 343.1425459168895C183.38750318994533 347.29848354371865 193.4625034974099 447.52584597741503 218.65000426607145 452.0281117398133C243.83750503473297 456.53037750221154 253.9125053421976 363.71443716969384 279.1000061108591 364.7534215764011C304.28750687952066 365.7924059831084 314.3625071869853 455.97625248530096 339.55000795564683 457.01523689200826C364.7375087243083 458.05422129871556 374.8125090317729 371.9916796097952 400.0000098004344 369.7405467285961C425.18751056909593 367.489413847397 435.26251087656055 442.7465177065615 460.4500116452221 446.20979906225244C485.63751241388366 449.6730804179434 495.71251272134816 391.03972706609545 520.9000134900098 386.36429723591266C546.0875142586714 381.68886740572987 556.1625145661359 421.51660299617595 581.3500153347974 423.76773587737506C606.537516103459 426.0188687585742 616.6125164109235 393.01379743883933 641.8000171795851 397.1697350656685C666.9875179482467 401.3256726924976 689.6562686400421 434.0190486902203 702.2500190243727 443.71623648615497 " transform="rotate(100.75, 400, 400)"></path><path d="M107.5000005578995 431.0447901338157C119.6875009298325 413.1139302116093 141.6250015993119 340.95478738448696 166.00000234317787 344.97666250722483C190.37500308704386 348.99853762996275 200.12500338459026 445.9927593399915 224.50000412845623 450.34979072295755C248.87500487232225 454.7068221059236 258.62500516986864 364.8849443647774 283.00000591373464 365.8904131454619C307.37500665760064 366.89588192614633 317.125006955147 454.1705720895585 341.50000769901305 455.176040870243C365.87500844287905 456.18150965092747 375.6250087404254 372.89517898423037 400.00000948429135 370.71666329274734C424.37501022815735 368.5381476012643 434.1250105257038 441.3676029488429 458.50001126956977 444.7191655511245C482.87501201343576 448.0707281534061 492.62501231098213 391.328773296779 517.0000130548482 386.80416378369887C541.3750137987142 382.27955427061875 551.1250140962604 420.8225241968569 575.5000148401266 423.0010398883399C599.8750155839925 425.17955557982293 609.625015881539 393.2391639800795 634.000016625405 397.2610391028174C658.3750173692711 401.28291422555526 680.3125180387503 432.9216651910933 692.5000184106833 442.30604047748176 " transform="rotate(97.5, 400, 400)"></path><path d="M117.25000053930285 430.00996150720346C129.0312508988381 412.6767969157372 150.2375015460015 342.92295884951903 173.80000226507195 346.8107714681657C197.3625029841424 350.6985840868123 206.78750327177056 444.45966507317337 230.35000399084106 448.67146207670726C253.9125047099115 452.88325908024115 263.33750499753967 366.0554439304665 286.90000571661017 367.0273970851281C310.4625064356806 367.9993502397898 319.8875067233088 452.3648840644215 343.4500074423793 453.33683721908324C367.0125081614497 454.30879037374484 376.4375084490779 373.798670729271 400.0000091681483 371.69277222750407C423.56250988721877 369.5868737257372 432.987510174847 439.9886805617298 456.55001089391743 443.22852441060195C480.11251161298793 446.4683682594742 489.53751190061604 391.617811898068 513.1000126196866 387.24402270209055C536.6625133387571 382.8702335061131 546.0875136263852 420.12843776814327 569.6500143454557 422.2343362699102C593.2125150645261 424.34023477167716 602.6375153521542 393.4645228919252 626.2000160712248 397.3523355105718C649.7625167902953 401.2401481292184 670.9687674374586 431.8242740625719 682.7500177969939 440.895836839414 " transform="rotate(94.25, 400, 400)"></path><path d="M127.0000005207062 428.9751366952885C138.37500086784365 412.23966743456253 158.8500014926911 344.89113412924837 181.600002186966 348.64488424380374C204.35000288124093 352.3986343583591 213.4500031589509 442.9265746210526 236.20000385322584 446.99313724515423C258.9500045475007 451.0596998692559 268.05000482521075 367.2259473108528 290.8000055194857 368.1643848394916C313.55000621376064 369.1028223681305 322.65000649147055 450.5591998539818 345.4000071857455 451.49763738262067C368.15000788002044 452.43607491125954 377.25000815773035 374.70216628900886 400.0000088520053 372.66888497695805C422.7500095462802 370.63560366490725 431.85000982399015 438.60976198931394 454.6000105182651 441.73788708477673C477.3500112125401 444.8660121802395 486.45001149024995 391.90685431405427 509.20001218452495 387.6838854351795C531.9500128788 383.4609165563047 541.0500131565097 419.43435515412693 563.8000138507848 421.46763646617774C586.5500145450598 423.5009177782286 595.6500148227697 393.6898856184681 618.4000155170445 397.4436357330234C641.1500162113196 401.1973858475788 661.625016836167 430.7268867487477 673.0000171833044 439.4856370160435 " transform="rotate(91, 400, 400)"></path><path d="M136.75000050210954 427.9403233274653C147.71875083684924 411.8025493974796 167.4625014393807 346.8593208530695 189.4000021088601 350.4790084635336C211.33750277833946 354.0986960739977 220.11250304613122 441.39349561302356 242.05000371561061 445.314823857693C263.98750438509 449.2361521023625 272.7625046528818 368.3964621353309 294.7000053223612 369.30138403794695C316.6375059918406 370.20630594056297 325.4125062596323 448.7535270876339 347.3500069291117 449.65844899024995C369.2875075985911 450.563370892866 378.0625078663828 375.60567329283856 400.00000853586226 373.64500917050384C421.9375092053416 371.6843450481691 430.7125094731334 437.2308548609899 452.65001014261276 440.2472612030433C474.58751081209226 443.2636675450967 483.3625110798839 392.19590817413234 505.30001174936336 388.12375961236023C527.2375124188427 384.0516110505881 536.0125126866344 418.7402839842024 557.9500133561139 420.7009481065371C579.8875140255934 422.6616122288719 588.662514293385 393.91525978910283 610.6000149628644 397.53494739956693C632.5375156323439 401.15463501003103 652.2812662348754 429.62951087901524 663.250016569615 438.0754486367648 " transform="rotate(87.75, 400, 400)"></path><path d="M146.49998522472384 426.90548325676133C157.06248554706576 411.3654046575158 176.07498612728125 348.8274808740098 197.1999867719651 352.3131059803826C218.32498741664892 355.7987310867555 226.7749876745225 439.8603899021137 247.89998831920636 443.63648376735097C269.0249889638902 447.4125776325882 277.47498922176374 369.5669502569282 298.59998986644763 370.4383565335214C319.7249905111315 371.3097628101146 328.17499076900503 446.94782761840514 349.2999914136889 447.8192338949983C370.42499205837277 448.69064017159155 378.8749923162462 376.5091535937874 399.9999929609302 374.62110666116877C421.12499360561395 372.7330597285502 429.5749938634875 435.851921029785 450.69999450817136 438.75660861842897C471.8249951528553 441.661296207073 480.27499541072876 392.48493533132955 501.39999605541266 388.5636070866601C522.5249967000966 384.6422788419907 530.97499695797 418.046186111397 552.099997602654 419.9342330440156C573.2249982473379 421.82227997663426 581.6749985052113 394.1406072568567 602.7999991498953 397.6262323632295C623.9249997945792 401.11185746960234 642.9375003747946 428.532108306402 653.5000006971366 436.66523355460527 " transform="rotate(84.5, 400, 400)"></path><path d="M156.24998520612718 425.8706584448464C166.40623551607135 410.92827517634106 184.68748607397083 350.7956561537391 204.99998669385917 354.1472187560207C225.31248731374748 357.49878135830227 233.43748756170282 438.3272994499929 253.74998818159116 441.95815893579794C274.0624888014795 445.589018421603 282.1874890494348 370.7374536373145 302.49998966932316 371.5753442878849C322.8124902892115 372.4132349384553 330.9374905371668 445.1421434079654 351.2499911570551 445.9800340585358C371.56249177694343 446.81792470910625 379.68749202489875 377.4126491535253 399.9999926447871 375.59721941062276C420.3124932646754 373.78178966772026 428.43749351263074 434.4730024573691 448.7499941325191 437.26597129260375C469.0624947524074 440.0589401278384 477.1874950003627 392.7739777473158 497.49999562025107 389.00346981974906C517.8124962401394 385.2329618921823 525.9374964880947 417.3521034973807 546.2499971079831 419.16753324028326C566.5624977278715 420.98296298318576 574.6874979758268 394.3659699833996 594.999998595715 397.71753258568117C615.3124992156033 401.0690951879627 633.5937497735029 427.4347209925778 643.750000083447 435.2550337312348 " transform="rotate(81.25, 400, 400)"></path><path d="M165.99998518753054 424.83582218883964C175.74998548507693 410.4911342510745 193.29998602066047 352.76381998937666 212.79998661575326 355.981320087567C232.299987210846 359.1988201857573 240.09998744888316 436.7941975537803 259.59998804397594 440.2798226601531C279.0999886390687 443.765447766526 286.89998887710584 371.907945573609 306.3999894721986 372.7123205981566C325.89999006729147 373.51669562270416 333.6999903053286 443.3364477534339 353.19999090042137 444.1408227779815C372.69999149551415 444.9451978025291 380.49999173355127 378.31613326917136 399.999992328644 376.573320715985C419.49999292373684 374.83050816279854 427.29999316177395 433.09407244086145 446.79999375686674 435.7753225226867C466.2999943519596 438.45657260451196 474.09999458999664 393.0630087192103 493.5999951850895 389.4433211087462C513.0999957801823 385.8236334982821 520.8999960182193 416.6580094392726 540.3999966133122 418.40082199245904C559.899997208405 420.14363454564545 567.699997446442 394.5913212658507 587.1999980415349 397.808821364041C606.6999986366277 401.02632146223135 624.2499991722112 426.33732223466177 633.9999994697575 433.8448224637725 " transform="rotate(78, 400, 400)"></path><path d="M175.7499851689339 423.80099737692467C185.09373545408252 410.0540047698998 201.91248596735005 354.73199526910605 220.5999865376473 357.81543286320505C239.28748710794454 360.8988704573041 246.76248733606346 435.2611071016595 265.4499879063607 438.60149782860015C284.137488476658 441.94188855554074 291.61248870477687 373.07844895399535 310.29998927507415 373.8493083525201C328.98748984537144 374.62016775104485 336.46249007349036 441.53076354299424 355.1499906437876 442.301622941519C373.8374912140848 443.07248234004373 381.31249144220374 379.2196288289093 399.999992012501 377.549433465439C418.68749258279826 375.87923810196867 426.1624928109172 431.7151538684456 444.8499933812144 434.28468519686146C463.5374939515117 436.85421652527737 471.01249417963055 393.3520511351966 489.69999474992784 389.88318384183515C508.3874953202251 386.4143165484737 515.862495548344 415.9639268252563 534.5499961186413 417.63412218872656C553.2374966889386 419.30431755219695 560.7124969170575 394.8166839923936 579.3999974873548 397.9001215864927C598.087498057652 400.9835591805917 614.9062485709196 425.2399349208376 624.2499988560681 432.43462264040204 " transform="rotate(74.75, 400, 400)"></path><path d="M185.49998515033724 422.7661687503125C194.4374854230881 409.6168714740278 210.52498591403966 356.70016673413807 228.39998645954137 359.6495418241459C246.2749870050431 362.5989169141537 253.4249872232438 433.72801283484137 271.2999877687455 436.92316918234985C289.17498831424723 440.1183255298583 296.32498853244795 374.2489485196844 314.1999890779497 374.98629229218636C332.0749896234514 375.7236360646883 339.22498984165213 439.72507551785725 357.0999903871538 440.4624192903592C374.9749909326556 441.1997630628611 382.1249911508562 380.1231205739499 399.99999169635794 378.5255424001957C417.8749922418597 376.9279642264415 425.0249924600604 430.33623148133245 442.89999300556207 432.7940440563389C460.77499355106386 435.25185663134545 467.9249937692645 393.6410897364856 485.79999431476625 390.3230427602268C503.67499486026804 387.00499578396807 510.82499507846865 415.2698403965427 528.6999956239704 416.8674185702969C546.5749961694721 418.4649967440511 553.7249963876727 395.0420429042393 571.5999969331746 397.99141799424706C589.4749974786763 400.9407930842549 605.5624979696279 424.14254379231613 614.4999982423788 431.0244190023343 " transform="rotate(71.5, 400, 400)"></path><path d="M195.24998513174057 421.73136301188384C203.7812353920937 409.1797610663394 219.13748586072927 358.6683610873538 236.19998638143545 361.4836736732703C253.26248690214163 364.2989862591868 260.0874871104241 432.19494145620695 277.14998763113033 435.24486342428315C294.2124881518365 438.2947853923594 301.03748836011897 375.41947097355705 318.0999888808252 376.1232991200362C335.1624894015314 376.82712726651533 341.98748960981385 437.91941038090386 359.0499901305201 438.623238527383C376.11249065122627 439.32706667386213 382.93749085950867 381.02663520717414 399.99999138021485 379.50167422313604C417.0624919009211 377.97671323909793 423.88749210920355 428.95733198240293 440.9499926299098 431.303425804C458.012493150616 433.6495196255971 464.8374933588984 393.9301512259582 481.89999387960466 390.7629245668021C498.9624944003109 387.595697907646 505.7874946085933 414.5757768560127 522.8499951292995 416.1007378400508C539.9124956500057 417.62569882408894 546.7374958582882 395.26742470426854 563.7999963789944 398.0827372901851C580.8624968997005 400.8980498761016 596.2187473683362 423.0451755519782 604.7499976286892 429.61423825245015 " transform="rotate(68.25, 400, 400)"></path><path d="M204.99998511314394 420.69652675587713C213.12498536109928 408.74262014107285 227.74998580741885 360.6365249229913 243.99998630332954 363.31777500481655C260.24998679924016 365.99902508664184 266.7499869976044 430.66183955999435 282.9999874935151 433.56652714863833C299.2499879894258 436.4712147372824 305.74998818779005 376.5899629098516 321.99998868370074 377.2602754303079C338.24998917961136 377.9305879507642 344.7499893779756 436.11371472637234 360.9999898738863 436.78402724682866C377.24999036979693 437.454339767285 383.7499905681612 381.93011932282025 399.9999910640719 380.4777755284982C416.2499915599825 379.0254317341762 422.7499917583468 427.5784019658953 438.99999225425745 429.812777034083C455.2499927501682 432.04715210227073 461.74999294853234 394.21918219785266 477.9999934444431 391.20277585579925C494.2499939403537 388.18636951374583 500.74999413871797 413.8816827979046 516.9999946346286 415.33402659222656C533.2499951305393 416.7863703865486 539.7499953289035 395.49277598671966 555.9999958248143 398.17402606854495C572.2499963207249 400.8552761503702 586.8749967670444 421.94777679406224 594.9999970149998 428.2040269849879 " transform="rotate(65, 400, 400)"></path><path d="M214.7499850945473 419.6617057586594C222.46873533010483 408.3054944745954 236.36248575410846 362.60470401741793 251.7999862252236 365.15189159515194C267.2374866963387 367.6990791728859 273.41248688478476 429.12875292257075 288.8499873558999 431.88820613178257C304.287487827015 434.64765934099444 310.4624880154611 377.76047010493517 325.8999884865762 378.3972669993687C341.33748895769133 379.03406389380217 347.5124891461374 434.3080343306299 362.9499896172525 434.9448312250634C378.38749008836766 435.5816281194969 384.56249027681366 382.8336186972554 399.9999907479288 381.4538920926495C415.4374912190439 380.0741654880436 421.61249140749 426.19948720817666 437.0499918786051 428.322143522955C452.4874923497203 430.44479983773334 458.66249253816625 394.5082284285362 474.09999300928143 391.64264240358546C489.5374934803966 388.7770563786347 495.71249366884257 413.18760399858553 511.14999413995776 414.5673306031914C526.5874946110729 415.94705720779734 532.7624947995189 395.71814252795986 548.1999952706341 398.26533010569386C563.6374957417493 400.81251768342787 577.5312461657529 420.8503932949353 585.2499964013105 426.7938309763146 " transform="rotate(61.75, 400, 400)"></path><path d="M224.49998507595063 418.6268695026527C231.81248529911045 407.86835354932884 244.97498570079807 364.57286785305547 259.59998614711765 366.9859929266982C274.2249865934373 369.39911800034093 280.0749867719651 427.59565102635815 294.6999872182847 430.2098698561378C309.3249876646043 432.82408868591745 315.17498784313216 378.9309620412297 329.7999882894517 379.5342433096404C344.4249887357713 380.1375245780511 350.2749889142992 432.5023386760984 364.89998936061875 433.1056199445091C379.5249898069384 433.7089012129197 385.3749899854662 383.7371028129015 399.99999043178576 382.4299933980117C414.62499087810534 381.1228839831219 420.4749910566332 424.820557191669 435.0999915029528 426.831494753038C449.7249919492724 428.84243231440695 455.5749921278002 394.7972594004307 470.19999257411985 392.0824936925826C484.8249930204395 389.36772798473453 490.67499319896723 412.4935099404774 505.29999364528686 413.8006193553672C519.9249940916065 415.10772877025704 525.7749942701344 395.943493810411 540.3999947164539 398.3566188840537C555.0249951627735 400.76974395769645 568.1874955644612 419.7529945370193 575.499995787621 425.38361970885234 " transform="rotate(58.5, 400, 400)"></path><path d="M234.24998505735397 417.592048505435C241.156235268116 407.4312278828514 253.58748564748768 366.5410469474821 267.39998606901173 368.82010951703353C281.21248649053575 371.099172086585 286.7374866591454 426.0625643889346 300.5499870806695 428.53154883928204C314.3624875021935 431.0005332896295 319.8874876708032 380.10146923631333 333.6999880923272 380.67123487870117C347.5124885138513 381.24100052108906 353.03748868246095 430.69665828035596 366.84998910398497 431.2664239227438C380.66248952550905 431.8361895651317 386.18748969411865 384.64060218733664 399.99999011564273 383.40610996216293C413.8124905371668 382.1716177369892 419.3374907057764 423.44164243395045 433.1499911273005 425.34086124191C446.9624915488246 427.24008004986956 452.4874917174342 395.0863056311142 466.29999213895826 392.5223602403688C480.11249256048234 389.9584148496234 485.6374927290919 411.7994311411583 499.44999315061597 413.03392336633203C513.2624935721401 414.2684155915058 518.7874937407496 396.1688603516512 532.5999941622738 398.44792292120263C546.4124945837978 400.7269854907541 558.8437449631695 418.65561103789236 565.7499951739314 423.9734237001791 " transform="rotate(55.25, 400, 400)"></path><path d="M243.99998503875733 416.55721797147413C250.49998523712162 406.99409267963074 262.1999855941773 368.5092165051655 275.1999859909058 370.6542165706257C288.19998638763434 372.79921663608593 293.39998654632575 424.5294682147679 306.3999869430543 426.85321828568317C319.3999873397828 429.17696835659837 324.5999874984742 381.27196689465376 337.59998789520273 381.8082169110188C350.59998829193125 382.34446692738385 355.79998845062266 428.89096834787034 368.7999888473512 429.4272183642354C381.7999892440797 429.96346838060043 386.9999894027711 385.54409202502865 399.99998979949964 384.382216989571C412.99999019622817 383.22034195411345 418.1999903549196 422.06271813948865 431.19999075164816 423.85021819403886C444.19999114837674 425.637718248589 449.39999130706803 395.3753423250546 462.3999917037966 392.96221725141186C475.3999921005252 390.5490921777691 480.5999922592165 411.10534280509614 493.59999265594513 412.2672178405537C506.59999305267365 413.42909287601134 511.799993211365 396.3942173561482 524.7999936080936 398.5392174216084C537.7999940048221 400.6842174870686 549.4999943618777 417.5582180020222 555.999994560242 422.5632181547627 " transform="rotate(52, 400, 400)"></path><path d="M253.7499850201607 415.5223931595592C259.8437352061272 406.556963198456 270.8124855408669 370.47739178489485 282.99998591279984 372.4883293462638C295.18748628473287 374.4992669076327 300.0624864335061 422.9963777626471 312.24998680543905 425.17489345413014C324.4374871773721 427.35340914561317 329.3124873261453 382.4424702750401 341.49998769807826 382.94520466538233C353.6874880700112 383.44793905572453 358.56248821878444 427.0852841374306 370.74998859071746 427.5880185277729C382.9374889626505 428.0907529181151 387.81248911142364 386.44758758476655 399.9999894833566 385.35832973902507C412.18748985528964 384.2690718932835 417.06249000406285 420.6837995670728 429.2499903759958 422.3595808682136C441.4374907479288 424.0353621693544 446.312490896702 395.66438474104086 458.49999126863503 393.4020799845008C470.68749164056806 391.13977522796074 475.56249178934115 410.4112601910798 487.74999216127424 411.5005180368213C499.9374925332072 412.58977588256283 504.8124926819804 396.61958008269113 516.9999930539134 398.6305176440601C529.1874934258465 400.641455205429 540.1562437605861 416.46083068819803 546.2499939465526 421.1530183313922 " transform="rotate(48.75, 400, 400)"></path><path d="M263.499985001564 414.4875664402956C269.1874851751328 406.11983180993263 279.42498548755646 372.44556515727555 290.7999858346939 374.32244021455324C302.1749861818314 376.1993152718309 306.7249863206864 421.4632854031777 318.0999866678238 423.4965667152285C329.4749870149613 425.5298480272793 334.0249871538163 383.61297174807777 345.3999875009538 384.0821905123972C356.77498784809126 384.5514092767166 361.3249879869462 425.27959801964226 372.6999883340837 425.74881678396173C384.07498868122116 426.21803554828114 388.6249888200761 387.3510812371558 399.9999891672136 386.33444058113037C411.374989514351 385.31779992510496 415.924989653206 419.30487908730834 427.2999900003435 420.86894163503973C438.67499034748096 422.4330041827711 443.2249904863359 395.9534252496785 454.5999908334734 393.8419408102411C465.9749911806109 391.7304563708037 470.5249913194658 409.71717566971483 481.89999166660334 410.73381632574024C493.2749920137408 411.75045698176564 497.82499215259577 396.8449409018854 509.1999924997332 398.7218159591631C520.5749928468707 400.5986910164408 530.8124931592945 415.3634414670252 536.4999933328631 419.7428166006731 " transform="rotate(45.5, 400, 400)"></path><path d="M273.24998498296736 413.45274162838064C278.53123514413835 405.6827023287579 288.0374854342461 374.4137404370049 298.599985756588 376.1565529901913C309.16248607892993 377.8993655433777 313.3874862078667 419.9301949510568 323.94998653020866 421.81824188367546C334.5124868525506 423.7062888162941 338.73748698148734 384.7834751284641 349.2999873038293 385.2191782667607C359.86248762617123 385.65488140505727 364.087487755108 423.4739138092026 374.6499880774499 423.90961694749916C385.2124883997918 424.3453200857958 389.4374885287286 388.25457679689373 399.99998885107055 387.3105533305844C410.5624891734125 386.3665298642751 414.78748930234923 417.9259605148925 425.34998962469115 419.3783043092145C435.9124899470331 420.83064810353653 440.1374900759698 396.2424676656648 450.6999903983118 394.28180354333006C461.2624907206538 392.32113942099534 465.4874908495905 409.0230930556985 476.04999117193245 409.9671165220078C486.6124914942744 410.91113998831713 490.8374916232111 397.07030362842835 501.3999919455531 398.81311618161476C511.9624922678951 400.55592873480117 521.4687425580028 414.26605415320097 526.7499927191737 418.33261677730263 " transform="rotate(42.25, 400, 400)"></path><path d="M283.0000002231598 412.41791300176845C287.87500037193297 405.2455690328859 296.65000063972474 376.38191190203696 306.40000093727116 377.9906619511321C316.1500012348175 379.5994120002273 320.05000135383614 418.3971006842388 329.8000016513825 420.13991323742516C339.55000194892887 421.88272579061163 343.4500020679475 385.95397469415315 353.20000236549384 386.3561622064269C362.95000266304027 386.75834971870074 366.8500027820588 421.6682257840656 376.60000307960524 422.0704132963394C386.3500033771516 422.47260080861315 390.25000349617017 389.1580685419343 400.00000379371653 388.28666226534114C409.75000409126295 387.4152559887479 413.6500042102815 416.54703812777933 423.40000450782793 417.887663168692C433.15000480537435 419.2282882096046 437.05000492439285 396.5315062669538 446.8000052219393 394.72166246172173C456.5500055194857 392.9118186564897 460.4500056385042 408.32900662698495 470.2000059360506 409.2004129035781C479.95000623359704 410.07181918017136 483.85000635261554 397.295662540274 493.60000665016196 398.90441258936914C503.3500069477084 400.5131626384643 512.1250072155001 413.1686630246795 517.0000073642733 416.9224131392349 " transform="rotate(39, 400, 400)"></path><path d="M292.75000020456315 411.3830900972021C297.2187503409386 404.8084414590598 305.2625005864144 378.35008908911493 314.20000085916524 379.82477663411885C323.1375011319161 381.2994641791227 326.7125012410164 416.8640121394666 335.6500015137673 418.4615903132208C344.58750178651815 420.05916848697507 348.1625018956185 387.1244799818881 357.1000021683694 387.4931518681391C366.03750244112024 387.86182375439006 369.6125025502206 419.8625434809745 378.55000282297146 420.2312153672255C387.48750309572233 420.5998872534765 391.06250320482263 390.06156600902085 400.0000034775735 389.26277692214376C408.93750375032437 388.46398783526666 412.5125038594247 415.1681214627121 421.45000413217554 416.3970277502154C430.38750440492646 417.6259340377186 433.9625045140268 396.8205505902887 442.9000047867777 395.1615271021593C451.83750505952855 393.50250361402993 455.41250516862885 407.63492592031724 464.3500054413797 408.43371500719434C473.2875057141306 409.2325040940715 476.8625058232309 397.52102717416557 485.8000060959818 398.9957147191694C494.7375063687327 400.47040226417334 502.7812566142085 412.07127761820396 507.2500067505839 415.51221522321305 " transform="rotate(35.75, 400, 400)"></path><path d="M302.5000001859665 410.34826337793857C306.5625003099442 404.3713100705364 313.87500053310396 380.31826246149564 322.00000078105927 381.6588875024083C330.1250010290146 382.9995125433209 333.37500112819674 415.33091977999715 341.5000013761521 416.78326357431916C349.6250016241074 418.2356073686412 352.87500172328953 388.2949814549258 361.0000019712449 388.630137715154C369.1250022192002 388.9652939753821 372.37500231838237 418.05685736318617 380.5000025663377 418.39201362341436C388.625002814293 418.7271698836425 391.8750029134751 390.9650596614101 400.00000316143047 390.2388877642491C408.1250034093858 389.5127158670881 411.37500350856794 413.78920098294765 419.50000375652326 414.9063885170415C427.6250040044786 416.02357605113536 430.8750041036607 397.10959109892633 439.0000043516161 395.6013879278996C447.1250045995714 394.0931847568729 450.3750046987535 406.9408413989523 458.5000049467088 407.6670132961133C466.6250051946642 408.3931851932743 469.8750052938463 397.74638799335986 478.00000554180167 399.08701303427245C486.125005789757 400.4276380751851 493.43750601291674 410.97388839703115 497.50000613689446 414.10201349249394 " transform="rotate(32.5, 400, 400)"></path><path d="M312.2500001673699 409.31343665867496C315.90625027894976 403.93417868201306 322.48750047979354 382.28643583387634 329.80000070295335 383.4929983706977C337.11250092611317 384.69956090751907 340.0375010153771 413.7978274205277 347.3500012385369 415.10493683541756C354.6625014616967 416.41204625030736 357.5875015509606 389.4654829279635 364.90000177412037 389.7671235621688C372.2125019972802 390.06876419637416 375.13750208654415 416.2511712453978 382.4500023097039 416.55281187960315C389.7625025328637 416.8544525138085 392.6875026221276 391.8685533137994 400.00000284528744 391.21499860635447C407.3125030684472 390.56144389890954 410.2375031577111 412.4102805031831 417.5500033808709 413.4157492838676C424.86250360403074 414.4212180645521 427.78750369329464 397.39863160756397 435.10000391645445 396.04124875363993C442.41250413961427 394.6838658997159 445.3375042288782 406.24675687758736 452.65000445203793 406.9003115850322C459.9625046751978 407.55386629247715 462.8875047644617 397.9717488125541 470.20000498762147 399.1783113493755C477.5125052107813 400.3848738861969 484.0937554116251 409.87649917585827 487.750005523205 412.69181176177483 " transform="rotate(29.25, 400, 400)"></path><path d="M322.0000001487732 408.2786080320628C325.2500002479553 403.49704538614105 331.1000004264832 384.25460729890847 337.60000062484744 385.32710733163856C344.1000008232117 386.39960736436865 346.7000009025574 412.26473315370964 353.20000110092167 413.42660818916727C359.70000129928593 414.5884832246249 362.30000137863163 390.63598249365253 368.8000015769959 390.9041075018351C375.30000177536016 391.1722325100176 377.90000185470586 414.4454832202608 384.4000020530701 414.7136082284434C390.9000022514344 414.9817332366259 393.5000023307801 392.77204505884004 400.00000252914435 392.1911075411112C406.5000027275086 391.6101700233824 409.1000028068543 411.03135811607 415.6000030052186 411.92510814334514C422.1000032035829 412.8188581706202 424.70000328292855 397.687670208853 431.2000034812928 396.4811076720316C437.70000367965713 395.27454513521025 440.3000037590028 405.55267044887376 446.8000039573671 406.13360796660254C453.30000415573136 406.7145454843314 455.90000423507706 398.19710772439976 462.4000044334413 399.2696077571299C468.9000046318056 400.34210778986 474.7500048103334 408.7791080473368 478.00000490951555 411.28160812370703 " transform="rotate(26, 400, 400)"></path><path d="M331.75000013017655 407.24378703484507C334.5937502169609 403.0599197196636 339.71250037317276 386.222786393335 345.4000005467415 387.1612239219739C351.08750072031023 388.09966145061276 353.36250078973774 410.7316465162861 359.05000096330645 411.7482871723115C364.73750113687515 412.7649278283369 367.01250120630266 391.8064896887362 372.7000013798714 392.0410990708958C378.3875015534402 392.2757084530556 380.66250162286764 412.6398028245184 386.35000179643635 412.87441220667813C392.0375019700051 413.10902158883783 394.3125020394326 393.67554443327515 400.0000022130013 393.16722410526245C405.68750238657003 392.65890377724975 407.96250245599754 409.65244335835143 413.6500026295663 410.43447463221713C419.337502803135 411.21650590608283 421.61250287256246 397.9767164395365 427.3000030461312 396.9209742198178C432.9875032197 395.8652320000991 435.26250328912744 404.8585916495547 440.9500034626962 405.3669119775674C446.6375036362649 405.8752323055801 448.9125037056924 398.42247426563995 454.6000038792611 399.3609117942788C460.2875040528299 400.29934932291764 465.4062542090418 407.68172454820984 468.2500042958261 409.8714121150338 " transform="rotate(22.75, 400, 400)"></path><path d="M341.4999962968826 406.2089584082329C343.9374963712692 402.6227864237916 348.32499650516513 388.19095785836714 353.19999665393834 388.9953328829147C358.0749968027115 389.7997079074623 360.0249968622208 409.19855224946804 364.89999701099396 410.0699585260612C369.77499715976717 410.94136480265445 371.7249972192765 392.97698925442523 376.5999973680497 393.1780830105621C381.4749975168229 393.379176766699 383.42499757633215 410.83411479938144 388.29999772510536 411.03520855551835C393.1749978738785 411.2363023116552 395.1249979333878 394.5790361783158 399.999998082161 394.1433330400192C404.87499823093424 393.7076299017226 406.8249982904435 408.2735209712383 411.6999984392167 408.9438334916946C416.5749985879899 409.61414601215097 418.52499864749916 398.2657550408255 423.39999879627237 397.3608331382095C428.2749989450456 396.4559112355935 430.22499900455483 404.1645052208411 435.09999915332804 404.6002083591377C439.97499930210125 405.0359114974343 441.9249993616105 398.6478331774856 446.7999995103837 399.4522082020332C451.6749996591569 400.2565832265808 456.0624997930528 406.5843334196884 458.4999998674394 408.4612084769661 " transform="rotate(19.5, 400, 400)"></path><path d="M351.249996278286 405.17412978162065C353.28124634027483 402.1856531279196 356.9374964518547 390.1591293233992 360.99999657583237 390.82944184385553C365.06249669981 391.4997543643118 366.68749674940113 407.66545798264997 370.7499968733788 408.391629879811C374.81249699735645 409.117801776972 376.4374970469475 394.1474888201143 380.4999971709252 394.31506695022836C384.56249729490287 394.4826450803424 386.1874973444939 409.02842677424445 390.2499974684716 409.1960049043585C394.31249759244923 409.36358303447264 395.9374976420403 395.48252792335643 399.99999776601794 395.1194419747759C404.0624978899956 394.7563560261954 405.6874979395867 406.8945985841252 409.74999806356436 407.4531923511721C413.812498187542 408.01178611821905 415.43749823713307 398.55479364211453 419.4999983611108 397.8006920566012C423.56249848508844 397.0465904710878 425.1874985346795 403.47041879212753 429.24999865865715 403.833504740708C433.31249878263486 404.19659068928854 434.93749883222586 398.87319208933127 438.99999895620357 399.5435046097876C443.0624990801812 400.2138171302439 446.7187491917611 405.48694229116694 448.74999925374993 407.05100483889834 " transform="rotate(16.25, 400, 400)"></path><path d="M360.99999625968934 404.1393049697057C362.6249963092804 401.74852364674484 365.5499963985443 392.12730460312855 368.79999649772645 392.6635546194936C372.0499965969086 393.19980463585864 373.3499966365814 406.1323675305291 376.59999673576357 406.71330504825795C379.8499968349457 407.29424256598674 381.1499968746185 395.3179922005006 384.3999969738007 395.4520547045919C387.64999707298284 395.5861172086831 388.94999711265564 407.22274256380473 392.1999972118378 407.356805067896C395.44999731101996 407.4908675719873 396.74999735069275 396.38602348309433 399.9999974498749 396.09555472422994C403.24999754905707 395.8050859653655 404.54999758872987 405.5156800117093 407.799997687912 405.9625550253469C411.0499977870942 406.4094300389844 412.349997826767 398.8438360581008 415.59999792594914 398.2405547896901C418.8499980251313 397.63727352127944 420.1499980648041 402.7763361781112 423.3999981639863 403.0668049369756C426.6499982631684 403.35727369584 427.94999830284127 399.0985548158742 431.1999984020234 399.63480483223924C434.4499985012055 400.1710548486043 437.37499859046943 404.3895549773427 438.99999864006054 405.64080501552786 " transform="rotate(13, 400, 400)"></path><path d="M370.7499962410927 403.1044782504421C371.96874627828595 401.3113922582215 374.16249634523393 394.09547797550925 376.59999641962054 394.497665487783C379.0374964940071 394.89985300005685 380.01249652376174 404.5992751710597 382.44999659814835 405.0349783093563C384.88749667253495 405.4706814476529 385.8624967022896 396.4884936735383 388.2999967766762 396.58904055160673C390.7374968510628 396.68958742967516 391.7124968808174 405.4170564460164 394.1499969552041 405.51760332408486C396.5874970295906 405.6181502021533 397.5624970593453 397.2895171354836 399.9999971337319 397.0716655663353C402.4374972081185 396.853813997187 403.41249723787314 404.13675953194485 405.8499973122597 404.471915792173C408.28749738664635 404.80707205240117 409.26249741640095 399.13287656673845 411.69999749078755 398.68041561543043C414.13749756517416 398.2279546641224 415.11249759492875 402.0822516567462 417.5499976693154 402.30010322589453C419.98749774370197 402.51795479504284 420.9624977734566 399.3239156350685 423.3999978478432 399.7261031473423C425.83749792222983 400.1282906596161 428.03124798917776 403.2921657561699 429.24999802637103 404.2306032848087 " transform="rotate(9.75, 400, 400)"></path><path d="M380.50000003719333 402.06965343852715C381.3125000619888 400.87426277704674 382.7750001066208 396.0636532552386 384.40000015621183 396.3317782634211C386.02500020580294 396.59990327160364 386.67500022563934 403.06618471893887 388.30000027523045 403.3566534778033C389.9250003248215 403.6471222366677 390.5750003446579 397.6589970539246 392.20000039424895 397.72602830597026C393.82500044384005 397.7930595580159 394.47500046367645 403.6113722355767 396.10000051326756 403.6784034876223C397.7250005628586 403.7454347396679 398.375000582695 398.19301269522146 400.00000063228606 398.0477783157893C401.62500068187717 397.90254393635706 402.27500070171357 402.75784095952895 403.9000007513047 402.98127846634776C405.5250008008957 403.2047159731665 406.1750008207321 399.4219189827247 407.8000008703232 399.1202783485194C409.4250009199143 398.81863771431404 410.0750009397507 401.38816904272994 411.7000009893418 401.5334034221621C413.32500103893284 401.67863780159433 413.9750010587693 399.5492783616114 415.60000110836035 399.81740336979396C417.2250011579514 400.08552837797646 418.68750120258335 402.1947784423457 419.5000012273789 402.8204034614382 " transform="rotate(6.5, 400, 400)"></path><path d="M390.25000001859667 401.0348267192636C390.65625003099444 400.43713138852337 391.3875000533104 398.0318266276193 392.2000000781059 398.16588913171057C393.01250010290147 398.2999516358018 393.33750011281967 401.53309235946944 394.1500001376152 401.67832673890166C394.9625001624107 401.8235611183338 395.2875001723289 398.8294985269623 396.1000001971245 398.8630141529851C396.91250022192 398.89652977900795 397.2375002318382 401.80568611778835 398.0500002566338 401.83920174381115C398.86250028142933 401.872717369834 399.18750029134753 399.0965063476107 400.00000031614303 399.02388915789464C400.8125003409386 398.95127196817856 401.1375003508568 401.3789204797645 401.95000037565234 401.49063923317385C402.76250040044783 401.6023579865833 403.0875004103661 399.71095949136236 403.9000004351616 399.5601391742597C404.71250045995714 399.409318857157 405.03750046987534 400.69408452136497 405.8500004946709 400.76670171108105C406.66250051946645 400.83931890079714 406.98750052938465 399.7746391808057 407.8000005541802 399.908701684897C408.6125005789757 400.04276418898826 409.3437506012917 401.0973892211728 409.75000061368945 401.4102017307191 " transform="rotate(3.25, 400, 400)"></path></g></svg>